# xmcd
#
# Track frame offsets: 
#        150
#        15873
#        33314
#        55088
#        70691
#        90595
#        110799
#        128783
#        148520
#        165067
#        181503
#        200613
#        217312
#
# Disc length: 3129 seconds
#
# Revision: 0
# Processed by: cddbd v1.5.2PL0 Copyright (c) Steve Scherf et al.
# Submitted via: ExactAudioCopyFreeDBPlugin 1.0
#
DISCID=a70c370d
DTITLE=群星 - DTS 天籁之爱Ⅱ
DYEAR=2010
DGENRE=Acid
TTITLE0=上官红燕 - 玛尼情歌
TTITLE1=容中尔甲Vs旺姆 - 天籁之爱
TTITLE2=齐旦布 - 呼伦贝尔大草原
TTITLE3=格格 - 赞歌
TTITLE4=胡红艳 - 骑上骏马回草原
TTITLE5=韩雷 - 草原香
TTITLE6=杭娇 - 爱上民族风
TTITLE7=格格 - 出塞曲
TTITLE8=云丹久美 - 牧野情歌
TTITLE9=胡东清 - 我的天堂
TTITLE10=门丽 - 美丽的西藏
TTITLE11=乐桐 - 最美的地方
TTITLE12=梅林组合 - 欢迎您到草原来
EXTD=
EXTT0=
EXTT1=
EXTT2=
EXTT3=
EXTT4=
EXTT5=
EXTT6=
EXTT7=
EXTT8=
EXTT9=
EXTT10=
EXTT11=
EXTT12=
PLAYORDER=
